# xmcd CD Database Entry
#
# Track frame offsets:
# 150
# 11947
# 30492
# 42792
# 55512
# 67745
# 79130
# 90835
# 103265
# 120320
#
# Disc length: 1845 seconds
#
# Revision: 6
# Processed by: cddbd v1.4PL0 Copyright (c) Steve Scherf et al.
# Submitted via: tcd 2.0b
#
DISCID=6a07330a
DTITLE=Johnny Cash
DYEAR=1900
DGENRE=
TTITLE0=Ring of Fire
TTITLE1=Sunday Morning Comin' Down
TTITLE2=I Walk the Line
TTITLE3=Folsum Prison
TTITLE4=Understand Your Man
TTITLE5=Big River
TTITLE6=I Still Miss Someone
TTITLE7=Jackson
TTITLE8=A Boy Named Sue
TTITLE9=One Piece at a Time
EXTD=
EXTT0=
EXTT1=
EXTT2=
EXTT3=
EXTT4=
EXTT5=
EXTT6=
EXTT7=
EXTT8=
EXTT9=
PLAYORDER=
